<svg width="248" height="57" viewBox="0 0 248 57" fill="none" xmlns="http://www.w3.org/2000/svg">
<mask id="path-1-outside-1_105_164" maskUnits="userSpaceOnUse" x="3" y="14.1572" width="109" height="33" fill="black">
<rect fill="white" x="3" y="14.1572" width="109" height="33"/>
<path d="M5.328 46.1572C4.656 46.1572 4.32 45.8212 4.32 45.1492V16.7812C4.32 16.1092 4.656 15.7732 5.328 15.7732C5.696 15.7732 6.048 15.9652 6.384 16.3492L27.072 42.8932H26.64V16.7812C26.64 16.1092 26.976 15.7732 27.648 15.7732C28.32 15.7732 28.656 16.1092 28.656 16.7812V45.1492C28.656 45.8212 28.32 46.1572 27.648 46.1572C27.28 46.1572 26.928 45.9652 26.592 45.5812L5.904 19.0372H6.336V45.1492C6.336 45.8212 6 46.1572 5.328 46.1572ZM43.7531 46.1572C41.3371 46.1572 39.5691 45.6052 38.4491 44.5012C37.3451 43.3812 36.7931 41.6132 36.7931 39.1972C36.7931 36.7652 37.3531 34.9892 38.4731 33.8692C39.5931 32.7492 41.3531 32.1892 43.7531 32.1892H54.9371C54.9211 29.9332 54.4331 28.3492 53.4731 27.4372C52.5131 26.5092 50.8731 26.0452 48.5531 26.0452H45.7691C43.5931 26.0452 42.0091 26.3012 41.0171 26.8132C40.0251 27.3092 39.4331 28.1572 39.2411 29.3572C39.1931 29.6612 39.0891 29.9012 38.9291 30.0772C38.7851 30.2372 38.5531 30.3172 38.2331 30.3172C37.8971 30.3172 37.6411 30.2292 37.4651 30.0532C37.2891 29.8612 37.2091 29.5972 37.2251 29.2612C37.3531 27.4372 38.1211 26.1092 39.5291 25.2772C40.9531 24.4452 43.0331 24.0292 45.7691 24.0292H48.5531C51.4811 24.0292 53.6091 24.7012 54.9371 26.0452C56.2811 27.3732 56.9531 29.5012 56.9531 32.4292V45.1492C56.9531 45.8212 56.6171 46.1572 55.9451 46.1572C55.2731 46.1572 54.9371 45.8212 54.9371 45.1492V42.3172C53.4651 44.8772 50.6331 46.1572 46.4411 46.1572H43.7531ZM43.7531 44.1412H46.4411C48.1211 44.1412 49.5691 43.9492 50.7851 43.5652C52.0171 43.1812 52.9851 42.5732 53.6891 41.7412C54.4091 40.9092 54.8251 39.8212 54.9371 38.4772V34.2052H43.7531C41.9131 34.2052 40.6251 34.5732 39.8891 35.3092C39.1691 36.0292 38.8091 37.3252 38.8091 39.1972C38.8091 41.0372 39.1691 42.3252 39.8891 43.0612C40.6251 43.7812 41.9131 44.1412 43.7531 44.1412ZM69.8678 46.1092C67.9318 46.1092 66.4678 45.6932 65.4758 44.8612C64.4838 44.0132 63.8998 42.7172 63.7238 40.9732C63.7078 40.6372 63.7878 40.3812 63.9638 40.2052C64.1398 40.0132 64.3958 39.9172 64.7318 39.9172C65.0518 39.9172 65.2918 40.0052 65.4518 40.1812C65.6278 40.3412 65.7238 40.5892 65.7398 40.9252C65.8678 42.0932 66.2438 42.9172 66.8678 43.3972C67.5078 43.8612 68.5078 44.0932 69.8678 44.0932H77.7398C79.3238 44.0932 80.4118 43.7892 81.0038 43.1812C81.6118 42.5572 81.9158 41.4692 81.9158 39.9172C81.9158 38.3492 81.6118 37.2612 81.0038 36.6532C80.4118 36.0452 79.3238 35.7412 77.7398 35.7412H69.9638C67.9478 35.7412 66.4598 35.2692 65.4998 34.3252C64.5398 33.3812 64.0598 31.9012 64.0598 29.8852C64.0598 27.8372 64.5398 26.3412 65.4998 25.3972C66.4598 24.4532 67.9478 23.9812 69.9638 23.9812H77.4998C81.0838 23.9812 83.0198 25.5812 83.3078 28.7812C83.3558 29.1172 83.2918 29.3812 83.1158 29.5732C82.9398 29.7492 82.6838 29.8372 82.3478 29.8372C82.0118 29.8372 81.7638 29.7572 81.6038 29.5972C81.4438 29.4212 81.3398 29.1652 81.2918 28.8292C81.1958 27.7732 80.8598 27.0372 80.2838 26.6212C79.7078 26.2052 78.7798 25.9972 77.4998 25.9972H69.9638C68.5078 25.9972 67.4918 26.2772 66.9158 26.8372C66.3558 27.3972 66.0758 28.4132 66.0758 29.8852C66.0758 31.3252 66.3558 32.3252 66.9158 32.8852C67.4918 33.4452 68.5078 33.7252 69.9638 33.7252H77.7398C79.8838 33.7252 81.4518 34.2212 82.4438 35.2132C83.4358 36.2052 83.9318 37.7732 83.9318 39.9172C83.9318 42.0452 83.4358 43.6132 82.4438 44.6212C81.4518 45.6132 79.8838 46.1092 77.7398 46.1092H69.8678ZM97.6125 46.1572C95.1965 46.1572 93.4285 45.6052 92.3085 44.5012C91.2045 43.3812 90.6525 41.6132 90.6525 39.1972C90.6525 36.7652 91.2125 34.9892 92.3325 33.8692C93.4525 32.7492 95.2125 32.1892 97.6125 32.1892H108.797C108.781 29.9332 108.293 28.3492 107.333 27.4372C106.373 26.5092 104.733 26.0452 102.413 26.0452H99.6285C97.4525 26.0452 95.8685 26.3012 94.8765 26.8132C93.8845 27.3092 93.2925 28.1572 93.1005 29.3572C93.0525 29.6612 92.9485 29.9012 92.7885 30.0772C92.6445 30.2372 92.4125 30.3172 92.0925 30.3172C91.7565 30.3172 91.5005 30.2292 91.3245 30.0532C91.1485 29.8612 91.0685 29.5972 91.0845 29.2612C91.2125 27.4372 91.9805 26.1092 93.3885 25.2772C94.8125 24.4452 96.8925 24.0292 99.6285 24.0292H102.413C105.341 24.0292 107.469 24.7012 108.797 26.0452C110.141 27.3732 110.812 29.5012 110.812 32.4292V45.1492C110.812 45.8212 110.477 46.1572 109.805 46.1572C109.133 46.1572 108.797 45.8212 108.797 45.1492V42.3172C107.325 44.8772 104.493 46.1572 100.301 46.1572H97.6125ZM97.6125 44.1412H100.301C101.981 44.1412 103.429 43.9492 104.645 43.5652C105.877 43.1812 106.845 42.5732 107.549 41.7412C108.269 40.9092 108.685 39.8212 108.797 38.4772V34.2052H97.6125C95.7725 34.2052 94.4845 34.5732 93.7485 35.3092C93.0285 36.0292 92.6685 37.3252 92.6685 39.1972C92.6685 41.0372 93.0285 42.3252 93.7485 43.0612C94.4845 43.7812 95.7725 44.1412 97.6125 44.1412Z"/>
</mask>
<path d="M5.328 46.1572C4.656 46.1572 4.32 45.8212 4.32 45.1492V16.7812C4.32 16.1092 4.656 15.7732 5.328 15.7732C5.696 15.7732 6.048 15.9652 6.384 16.3492L27.072 42.8932H26.64V16.7812C26.64 16.1092 26.976 15.7732 27.648 15.7732C28.32 15.7732 28.656 16.1092 28.656 16.7812V45.1492C28.656 45.8212 28.32 46.1572 27.648 46.1572C27.28 46.1572 26.928 45.9652 26.592 45.5812L5.904 19.0372H6.336V45.1492C6.336 45.8212 6 46.1572 5.328 46.1572ZM43.7531 46.1572C41.3371 46.1572 39.5691 45.6052 38.4491 44.5012C37.3451 43.3812 36.7931 41.6132 36.7931 39.1972C36.7931 36.7652 37.3531 34.9892 38.4731 33.8692C39.5931 32.7492 41.3531 32.1892 43.7531 32.1892H54.9371C54.9211 29.9332 54.4331 28.3492 53.4731 27.4372C52.5131 26.5092 50.8731 26.0452 48.5531 26.0452H45.7691C43.5931 26.0452 42.0091 26.3012 41.0171 26.8132C40.0251 27.3092 39.4331 28.1572 39.2411 29.3572C39.1931 29.6612 39.0891 29.9012 38.9291 30.0772C38.7851 30.2372 38.5531 30.3172 38.2331 30.3172C37.8971 30.3172 37.6411 30.2292 37.4651 30.0532C37.2891 29.8612 37.2091 29.5972 37.2251 29.2612C37.3531 27.4372 38.1211 26.1092 39.5291 25.2772C40.9531 24.4452 43.0331 24.0292 45.7691 24.0292H48.5531C51.4811 24.0292 53.6091 24.7012 54.9371 26.0452C56.2811 27.3732 56.9531 29.5012 56.9531 32.4292V45.1492C56.9531 45.8212 56.6171 46.1572 55.9451 46.1572C55.2731 46.1572 54.9371 45.8212 54.9371 45.1492V42.3172C53.4651 44.8772 50.6331 46.1572 46.4411 46.1572H43.7531ZM43.7531 44.1412H46.4411C48.1211 44.1412 49.5691 43.9492 50.7851 43.5652C52.0171 43.1812 52.9851 42.5732 53.6891 41.7412C54.4091 40.9092 54.8251 39.8212 54.9371 38.4772V34.2052H43.7531C41.9131 34.2052 40.6251 34.5732 39.8891 35.3092C39.1691 36.0292 38.8091 37.3252 38.8091 39.1972C38.8091 41.0372 39.1691 42.3252 39.8891 43.0612C40.6251 43.7812 41.9131 44.1412 43.7531 44.1412ZM69.8678 46.1092C67.9318 46.1092 66.4678 45.6932 65.4758 44.8612C64.4838 44.0132 63.8998 42.7172 63.7238 40.9732C63.7078 40.6372 63.7878 40.3812 63.9638 40.2052C64.1398 40.0132 64.3958 39.9172 64.7318 39.9172C65.0518 39.9172 65.2918 40.0052 65.4518 40.1812C65.6278 40.3412 65.7238 40.5892 65.7398 40.9252C65.8678 42.0932 66.2438 42.9172 66.8678 43.3972C67.5078 43.8612 68.5078 44.0932 69.8678 44.0932H77.7398C79.3238 44.0932 80.4118 43.7892 81.0038 43.1812C81.6118 42.5572 81.9158 41.4692 81.9158 39.9172C81.9158 38.3492 81.6118 37.2612 81.0038 36.6532C80.4118 36.0452 79.3238 35.7412 77.7398 35.7412H69.9638C67.9478 35.7412 66.4598 35.2692 65.4998 34.3252C64.5398 33.3812 64.0598 31.9012 64.0598 29.8852C64.0598 27.8372 64.5398 26.3412 65.4998 25.3972C66.4598 24.4532 67.9478 23.9812 69.9638 23.9812H77.4998C81.0838 23.9812 83.0198 25.5812 83.3078 28.7812C83.3558 29.1172 83.2918 29.3812 83.1158 29.5732C82.9398 29.7492 82.6838 29.8372 82.3478 29.8372C82.0118 29.8372 81.7638 29.7572 81.6038 29.5972C81.4438 29.4212 81.3398 29.1652 81.2918 28.8292C81.1958 27.7732 80.8598 27.0372 80.2838 26.6212C79.7078 26.2052 78.7798 25.9972 77.4998 25.9972H69.9638C68.5078 25.9972 67.4918 26.2772 66.9158 26.8372C66.3558 27.3972 66.0758 28.4132 66.0758 29.8852C66.0758 31.3252 66.3558 32.3252 66.9158 32.8852C67.4918 33.4452 68.5078 33.7252 69.9638 33.7252H77.7398C79.8838 33.7252 81.4518 34.2212 82.4438 35.2132C83.4358 36.2052 83.9318 37.7732 83.9318 39.9172C83.9318 42.0452 83.4358 43.6132 82.4438 44.6212C81.4518 45.6132 79.8838 46.1092 77.7398 46.1092H69.8678ZM97.6125 46.1572C95.1965 46.1572 93.4285 45.6052 92.3085 44.5012C91.2045 43.3812 90.6525 41.6132 90.6525 39.1972C90.6525 36.7652 91.2125 34.9892 92.3325 33.8692C93.4525 32.7492 95.2125 32.1892 97.6125 32.1892H108.797C108.781 29.9332 108.293 28.3492 107.333 27.4372C106.373 26.5092 104.733 26.0452 102.413 26.0452H99.6285C97.4525 26.0452 95.8685 26.3012 94.8765 26.8132C93.8845 27.3092 93.2925 28.1572 93.1005 29.3572C93.0525 29.6612 92.9485 29.9012 92.7885 30.0772C92.6445 30.2372 92.4125 30.3172 92.0925 30.3172C91.7565 30.3172 91.5005 30.2292 91.3245 30.0532C91.1485 29.8612 91.0685 29.5972 91.0845 29.2612C91.2125 27.4372 91.9805 26.1092 93.3885 25.2772C94.8125 24.4452 96.8925 24.0292 99.6285 24.0292H102.413C105.341 24.0292 107.469 24.7012 108.797 26.0452C110.141 27.3732 110.812 29.5012 110.812 32.4292V45.1492C110.812 45.8212 110.477 46.1572 109.805 46.1572C109.133 46.1572 108.797 45.8212 108.797 45.1492V42.3172C107.325 44.8772 104.493 46.1572 100.301 46.1572H97.6125ZM97.6125 44.1412H100.301C101.981 44.1412 103.429 43.9492 104.645 43.5652C105.877 43.1812 106.845 42.5732 107.549 41.7412C108.269 40.9092 108.685 39.8212 108.797 38.4772V34.2052H97.6125C95.7725 34.2052 94.4845 34.5732 93.7485 35.3092C93.0285 36.0292 92.6685 37.3252 92.6685 39.1972C92.6685 41.0372 93.0285 42.3252 93.7485 43.0612C94.4845 43.7812 95.7725 44.1412 97.6125 44.1412Z" fill="white"/>
<path d="M6.384 16.3492L7.17274 15.7345L7.15528 15.7121L7.13658 15.6907L6.384 16.3492ZM27.072 42.8932V43.8932H29.1192L27.8607 42.2785L27.072 42.8932ZM26.64 42.8932H25.64V43.8932H26.64V42.8932ZM26.592 45.5812L25.8033 46.196L25.8207 46.2184L25.8394 46.2397L26.592 45.5812ZM5.904 19.0372V18.0372H3.85677L5.11526 19.652L5.904 19.0372ZM6.336 19.0372H7.336V18.0372H6.336V19.0372ZM5.328 45.1572C5.28528 45.1572 5.25421 45.1545 5.23317 45.1515C5.21222 45.1485 5.20311 45.1455 5.20323 45.1455C5.20366 45.1457 5.21316 45.1489 5.22825 45.158C5.2357 45.1625 5.24404 45.1681 5.25288 45.1749C5.26173 45.1818 5.27056 45.1896 5.27911 45.1981C5.28765 45.2067 5.29541 45.2155 5.30229 45.2243C5.30916 45.2332 5.31477 45.2415 5.31924 45.249C5.3283 45.2641 5.33154 45.2736 5.33168 45.274C5.33172 45.2741 5.32869 45.265 5.3257 45.2441C5.32269 45.223 5.32 45.1919 5.32 45.1492H3.32C3.32 45.6394 3.44321 46.1907 3.86489 46.6123C4.28657 47.034 4.83786 47.1572 5.328 47.1572V45.1572ZM5.32 45.1492V16.7812H3.32V45.1492H5.32ZM5.32 16.7812C5.32 16.7385 5.32269 16.7074 5.3257 16.6864C5.32869 16.6654 5.33172 16.6563 5.33168 16.6565C5.33154 16.6569 5.3283 16.6664 5.31924 16.6815C5.31477 16.6889 5.30916 16.6973 5.30229 16.7061C5.29541 16.715 5.28765 16.7238 5.27911 16.7323C5.27056 16.7409 5.26173 16.7486 5.25288 16.7555C5.24404 16.7624 5.2357 16.768 5.22825 16.7725C5.21316 16.7815 5.20366 16.7848 5.20323 16.7849C5.20311 16.7849 5.21221 16.7819 5.23317 16.7789C5.25421 16.7759 5.28528 16.7732 5.328 16.7732V14.7732C4.83786 14.7732 4.28657 14.8964 3.86489 15.3181C3.44321 15.7398 3.32 16.2911 3.32 16.7812H5.32ZM5.328 16.7732C5.32997 16.7732 5.34655 16.7719 5.38915 16.7951C5.43782 16.8217 5.52083 16.8813 5.63142 17.0077L7.13658 15.6907C6.68707 15.177 6.083 14.7732 5.328 14.7732V16.7732ZM5.59526 16.964L26.2833 43.508L27.8607 42.2785L7.17274 15.7345L5.59526 16.964ZM27.072 41.8932H26.64V43.8932H27.072V41.8932ZM27.64 42.8932V16.7812H25.64V42.8932H27.64ZM27.64 16.7812C27.64 16.7385 27.6427 16.7074 27.6457 16.6864C27.6487 16.6654 27.6517 16.6563 27.6517 16.6565C27.6515 16.6569 27.6483 16.6664 27.6392 16.6815C27.6348 16.6889 27.6292 16.6973 27.6223 16.7061C27.6154 16.715 27.6077 16.7238 27.5991 16.7323C27.5906 16.7409 27.5817 16.7486 27.5729 16.7555C27.564 16.7624 27.5557 16.768 27.5482 16.7725C27.5332 16.7815 27.5237 16.7848 27.5232 16.7849C27.5231 16.7849 27.5322 16.7819 27.5532 16.7789C27.5742 16.7759 27.6053 16.7732 27.648 16.7732V14.7732C27.1579 14.7732 26.6066 14.8964 26.1849 15.3181C25.7632 15.7398 25.64 16.2911 25.64 16.7812H27.64ZM27.648 16.7732C27.6907 16.7732 27.7218 16.7759 27.7428 16.7789C27.7638 16.7819 27.7729 16.7849 27.7728 16.7849C27.7723 16.7848 27.7628 16.7815 27.7478 16.7725C27.7403 16.768 27.732 16.7624 27.7231 16.7555C27.7143 16.7486 27.7054 16.7409 27.6969 16.7323C27.6883 16.7238 27.6806 16.715 27.6737 16.7061C27.6668 16.6973 27.6612 16.6889 27.6568 16.6815C27.6477 16.6664 27.6445 16.6569 27.6443 16.6565C27.6443 16.6563 27.6473 16.6654 27.6503 16.6864C27.6533 16.7074 27.656 16.7385 27.656 16.7812H29.656C29.656 16.2911 29.5328 15.7398 29.1111 15.3181C28.6894 14.8964 28.1381 14.7732 27.648 14.7732V16.7732ZM27.656 16.7812V45.1492H29.656V16.7812H27.656ZM27.656 45.1492C27.656 45.1919 27.6533 45.223 27.6503 45.2441C27.6473 45.265 27.6443 45.2741 27.6443 45.274C27.6445 45.2736 27.6477 45.2641 27.6568 45.249C27.6612 45.2415 27.6668 45.2332 27.6737 45.2243C27.6806 45.2155 27.6883 45.2067 27.6969 45.1981C27.7054 45.1896 27.7143 45.1818 27.7231 45.1749C27.732 45.1681 27.7403 45.1625 27.7478 45.158C27.7628 45.1489 27.7723 45.1457 27.7728 45.1455C27.7729 45.1455 27.7638 45.1485 27.7428 45.1515C27.7218 45.1545 27.6907 45.1572 27.648 45.1572V47.1572C28.1381 47.1572 28.6894 47.034 29.1111 46.6123C29.5328 46.1907 29.656 45.6394 29.656 45.1492H27.656ZM27.648 45.1572C27.646 45.1572 27.6294 45.1586 27.5869 45.1353C27.5382 45.1088 27.4552 45.0491 27.3446 44.9227L25.8394 46.2397C26.2889 46.7534 26.893 47.1572 27.648 47.1572V45.1572ZM27.3807 44.9665L6.69274 18.4225L5.11526 19.652L25.8033 46.196L27.3807 44.9665ZM5.904 20.0372H6.336V18.0372H5.904V20.0372ZM5.336 19.0372V45.1492H7.336V19.0372H5.336ZM5.336 45.1492C5.336 45.1919 5.33331 45.223 5.3303 45.2441C5.32731 45.265 5.32428 45.2741 5.32432 45.274C5.32446 45.2736 5.3277 45.2641 5.33676 45.249C5.34123 45.2415 5.34684 45.2332 5.35371 45.2243C5.36059 45.2155 5.36835 45.2067 5.37689 45.1981C5.38544 45.1896 5.39427 45.1818 5.40312 45.1749C5.41196 45.1681 5.4203 45.1625 5.42775 45.158C5.44284 45.1489 5.45234 45.1457 5.45277 45.1455C5.45289 45.1455 5.44379 45.1485 5.42283 45.1515C5.40179 45.1545 5.37072 45.1572 5.328 45.1572V47.1572C5.81815 47.1572 6.36943 47.034 6.79111 46.6123C7.21279 46.1907 7.336 45.6394 7.336 45.1492H5.336ZM38.4491 44.5012L37.7369 45.2032L37.742 45.2084L37.7471 45.2134L38.4491 44.5012ZM38.4731 33.8692L37.766 33.1621L38.4731 33.8692ZM54.9371 32.1892V33.1892H55.9442L55.9371 32.1821L54.9371 32.1892ZM53.4731 27.4372L52.7781 28.1562L52.7844 28.1622L53.4731 27.4372ZM41.0171 26.8132L41.4644 27.7077L41.4758 27.7018L41.0171 26.8132ZM39.2411 29.3572L38.2537 29.1992L38.2534 29.2013L39.2411 29.3572ZM38.9291 30.0772L38.1892 29.4045L38.1858 29.4083L38.9291 30.0772ZM37.4651 30.0532L36.728 30.729L36.7427 30.745L36.758 30.7603L37.4651 30.0532ZM37.2251 29.2612L36.2276 29.1912L36.2268 29.2024L36.2263 29.2137L37.2251 29.2612ZM39.5291 25.2772L39.0246 24.4138L39.0204 24.4163L39.5291 25.2772ZM54.9371 26.0452L54.2257 26.7481L54.2343 26.7566L54.9371 26.0452ZM54.9371 42.3172H55.9371V38.572L54.0702 41.8188L54.9371 42.3172ZM50.7851 43.5652L50.4876 42.6105L50.484 42.6116L50.7851 43.5652ZM53.6891 41.7412L52.9329 41.0868L52.9257 41.0953L53.6891 41.7412ZM54.9371 38.4772L55.9337 38.5603L55.9371 38.5188V38.4772H54.9371ZM54.9371 34.2052H55.9371V33.2052H54.9371V34.2052ZM39.8891 35.3092L39.182 34.6021L39.8891 35.3092ZM39.8891 43.0612L39.1743 43.7605L39.182 43.7684L39.1898 43.7761L39.8891 43.0612ZM43.7531 45.1572C41.4623 45.1572 40.0047 44.6305 39.1511 43.7891L37.7471 45.2134C39.1335 46.58 41.212 47.1572 43.7531 47.1572V45.1572ZM39.1613 43.7992C38.3199 42.9456 37.7931 41.4881 37.7931 39.1972H35.7931C35.7931 41.7384 36.3704 43.8168 37.7369 45.2032L39.1613 43.7992ZM37.7931 39.1972C37.7931 36.8914 38.3273 35.4292 39.1802 34.5763L37.766 33.1621C36.3789 34.5492 35.7931 36.639 35.7931 39.1972H37.7931ZM39.1802 34.5763C40.0352 33.7213 41.4839 33.1892 43.7531 33.1892V31.1892C41.2224 31.1892 39.151 31.7771 37.766 33.1621L39.1802 34.5763ZM43.7531 33.1892H54.9371V31.1892H43.7531V33.1892ZM55.9371 32.1821C55.9205 29.8345 55.4194 27.9068 54.1619 26.7122L52.7844 28.1622C53.4469 28.7916 53.9218 30.0319 53.9372 32.1963L55.9371 32.1821ZM54.1681 26.7182C52.9247 25.5163 50.9558 25.0452 48.5531 25.0452V27.0452C50.7904 27.0452 52.1015 27.5022 52.7781 28.1562L54.1681 26.7182ZM48.5531 25.0452H45.7691V27.0452H48.5531V25.0452ZM45.7691 25.0452C43.5576 25.0452 41.772 25.2983 40.5585 25.9246L41.4758 27.7018C42.2462 27.3042 43.6286 27.0452 45.7691 27.0452V25.0452ZM40.5699 25.9188C39.259 26.5743 38.4909 27.7165 38.2537 29.1992L40.2286 29.5152C40.3753 28.5979 40.7913 28.0442 41.4643 27.7077L40.5699 25.9188ZM38.2534 29.2013C38.2403 29.2843 38.2228 29.3371 38.2096 29.3676C38.2031 29.3826 38.1977 29.3921 38.1943 29.3974C38.1926 29.4001 38.1913 29.4019 38.1905 29.4029C38.1897 29.404 38.1892 29.4045 38.1892 29.4046L39.6691 30.7499C39.9939 30.3926 40.1593 29.9539 40.2289 29.5132L38.2534 29.2013ZM38.1858 29.4083C38.2122 29.3789 38.2404 29.356 38.2666 29.3393C38.2922 29.3229 38.312 29.315 38.3211 29.3119C38.3364 29.3066 38.314 29.3172 38.2331 29.3172V31.3172C38.6975 31.3172 39.2623 31.2019 39.6724 30.7462L38.1858 29.4083ZM38.2331 29.3172C38.1501 29.3172 38.1158 29.3061 38.1142 29.3055C38.1141 29.3055 38.1215 29.3081 38.1336 29.3154C38.1459 29.323 38.1594 29.3333 38.1722 29.3461L36.758 30.7603C37.1797 31.182 37.7274 31.3172 38.2331 31.3172V29.3172ZM38.2023 29.3775C38.2104 29.3864 38.2176 29.3964 38.2231 29.4062C38.2285 29.4158 38.2303 29.4216 38.2301 29.4212C38.2296 29.4195 38.2203 29.3869 38.224 29.3088L36.2263 29.2137C36.2014 29.7348 36.3234 30.2876 36.728 30.729L38.2023 29.3775ZM38.2227 29.3312C38.3308 27.79 38.9498 26.7811 40.0379 26.1382L39.0204 24.4163C37.2925 25.4373 36.3754 27.0844 36.2276 29.1912L38.2227 29.3312ZM40.0336 26.1407C41.2346 25.439 43.1065 25.0292 45.7691 25.0292V23.0292C42.9597 23.0292 40.6717 23.4515 39.0247 24.4138L40.0336 26.1407ZM45.7691 25.0292H48.5531V23.0292H45.7691V25.0292ZM48.5531 25.0292C51.3574 25.0292 53.167 25.6765 54.2258 26.7481L55.6485 25.3424C54.0513 23.726 51.6049 23.0292 48.5531 23.0292V25.0292ZM54.2343 26.7566C55.3059 27.8154 55.9531 29.625 55.9531 32.4292H57.9531C57.9531 29.3775 57.2564 26.9311 55.64 25.3339L54.2343 26.7566ZM55.9531 32.4292V45.1492H57.9531V32.4292H55.9531ZM55.9531 45.1492C55.9531 45.1919 55.9504 45.223 55.9474 45.2441C55.9444 45.265 55.9414 45.2741 55.9414 45.274C55.9416 45.2736 55.9448 45.2641 55.9539 45.249C55.9584 45.2415 55.964 45.2332 55.9708 45.2243C55.9777 45.2155 55.9855 45.2067 55.994 45.1981C56.0026 45.1896 56.0114 45.1818 56.0202 45.1749C56.0291 45.1681 56.0374 45.1625 56.0449 45.158C56.06 45.1489 56.0695 45.1457 56.0699 45.1455C56.07 45.1455 56.0609 45.1485 56.04 45.1515C56.0189 45.1545 55.9878 45.1572 55.9451 45.1572V47.1572C56.4353 47.1572 56.9866 47.034 57.4082 46.6123C57.8299 46.1907 57.9531 45.6394 57.9531 45.1492H55.9531ZM55.9451 45.1572C55.9024 45.1572 55.8713 45.1545 55.8503 45.1515C55.8293 45.1485 55.8202 45.1455 55.8204 45.1455C55.8208 45.1457 55.8303 45.1489 55.8454 45.158C55.8528 45.1625 55.8612 45.1681 55.87 45.1749C55.8789 45.1818 55.8877 45.1896 55.8962 45.1981C55.9048 45.2067 55.9125 45.2155 55.9194 45.2243C55.9263 45.2332 55.9319 45.2415 55.9364 45.249C55.9454 45.2641 55.9487 45.2736 55.9488 45.274C55.9488 45.2741 55.9458 45.265 55.9428 45.2441C55.9398 45.223 55.9371 45.1919 55.9371 45.1492H53.9371C53.9371 45.6394 54.0603 46.1907 54.482 46.6123C54.9037 47.034 55.455 47.1572 55.9451 47.1572V45.1572ZM55.9371 45.1492V42.3172H53.9371V45.1492H55.9371ZM54.0702 41.8188C52.8466 43.9467 50.4423 45.1572 46.4411 45.1572V47.1572C50.824 47.1572 54.0836 45.8077 55.804 42.8157L54.0702 41.8188ZM46.4411 45.1572H43.7531V47.1572H46.4411V45.1572ZM43.7531 45.1412H46.4411V43.1412H43.7531V45.1412ZM46.4411 45.1412C48.1929 45.1412 49.7475 44.9416 51.0863 44.5188L50.484 42.6116C49.3907 42.9569 48.0494 43.1412 46.4411 43.1412V45.1412ZM51.0827 44.5199C52.4623 44.0899 53.6047 43.3892 54.4525 42.3872L52.9257 41.0953C52.3656 41.7573 51.572 42.2725 50.4876 42.6105L51.0827 44.5199ZM54.4453 42.3956C55.3327 41.3702 55.8081 40.0668 55.9337 38.5603L53.9406 38.3942C53.8421 39.5756 53.4856 40.4483 52.933 41.0868L54.4453 42.3956ZM55.9371 38.4772V34.2052H53.9371V38.4772H55.9371ZM54.9371 33.2052H43.7531V35.2052H54.9371V33.2052ZM43.7531 33.2052C41.8354 33.2052 40.2059 33.5782 39.182 34.6021L40.5962 36.0163C41.0443 35.5683 41.9908 35.2052 43.7531 35.2052V33.2052ZM39.182 34.6021C38.1688 35.6154 37.8091 37.2611 37.8091 39.1972H39.8091C39.8091 37.3894 40.1695 36.4431 40.5962 36.0163L39.182 34.6021ZM37.8091 39.1972C37.8091 41.1107 38.1725 42.7365 39.1743 43.7605L40.604 42.3619C40.1657 41.914 39.8091 40.9637 39.8091 39.1972H37.8091ZM39.1898 43.7761C40.2139 44.7779 41.8396 45.1412 43.7531 45.1412V43.1412C41.9866 43.1412 41.0364 42.7846 40.5884 42.3464L39.1898 43.7761ZM65.4758 44.8612L64.8259 45.6214L64.8331 45.6274L65.4758 44.8612ZM63.7238 40.9732L62.7249 41.0208L62.7261 41.0473L62.7288 41.0736L63.7238 40.9732ZM63.9637 40.2052L64.6709 40.9123L64.6862 40.897L64.7009 40.881L63.9637 40.2052ZM65.4518 40.1812L64.7118 40.8539L64.7438 40.8891L64.7791 40.9212L65.4518 40.1812ZM65.7398 40.9252L64.7409 40.9728L64.7423 41.0036L64.7457 41.0342L65.7398 40.9252ZM66.8678 43.3972L66.258 44.1898L66.2693 44.1985L66.2808 44.2068L66.8678 43.3972ZM81.0038 43.1812L80.2875 42.4834L80.2873 42.4836L81.0038 43.1812ZM81.0038 36.6532L80.2872 37.3509L80.2966 37.3603L81.0038 36.6532ZM65.4997 25.3972L64.7986 24.6842V24.6842L65.4997 25.3972ZM83.3078 28.7812L82.3118 28.8709L82.3141 28.8968L82.3178 28.9226L83.3078 28.7812ZM83.1158 29.5732L83.8229 30.2803L83.8382 30.265L83.8529 30.249L83.1158 29.5732ZM81.6038 29.5972L80.8638 30.2699L80.8798 30.2875L80.8966 30.3043L81.6038 29.5972ZM81.2917 28.8292L80.2959 28.9198L80.2982 28.9453L80.3018 28.9706L81.2917 28.8292ZM80.2838 26.6212L79.6983 27.4319L80.2838 26.6212ZM66.9157 26.8372L66.2186 26.1202L66.2086 26.1301L66.9157 26.8372ZM66.9157 32.8852L66.2086 33.5924L66.2187 33.6022L66.9157 32.8852ZM82.4437 35.2132L81.7366 35.9203L82.4437 35.2132ZM82.4437 44.6212L83.1509 45.3284L83.1565 45.3227L82.4437 44.6212ZM69.8678 45.1092C68.0544 45.1092 66.8597 44.7168 66.1184 44.095L64.8331 45.6274C66.0758 46.6696 67.8091 47.1092 69.8678 47.1092V45.1092ZM66.1255 44.1011C65.3886 43.4711 64.8779 42.4506 64.7187 40.8728L62.7288 41.0736C62.9216 42.9838 63.5789 44.5553 64.826 45.6213L66.1255 44.1011ZM64.7226 40.9257C64.7188 40.8461 64.7288 40.8194 64.7262 40.8275C64.7247 40.8324 64.7201 40.845 64.71 40.862C64.6998 40.8793 64.6865 40.8967 64.6709 40.9123L63.2566 39.4981C62.8185 39.9363 62.7004 40.5066 62.7249 41.0208L64.7226 40.9257ZM64.7009 40.881C64.6908 40.892 64.6786 40.9025 64.6655 40.9113C64.6525 40.9199 64.6427 40.9241 64.6389 40.9256C64.6322 40.9281 64.6571 40.9172 64.7318 40.9172V38.9172C64.2016 38.9172 63.6433 39.0749 63.2266 39.5295L64.7009 40.881ZM64.7318 40.9172C64.8027 40.9172 64.8216 40.9273 64.8075 40.9221C64.7996 40.9192 64.7847 40.9127 64.7659 40.9003C64.7469 40.8878 64.7283 40.872 64.7118 40.8539L66.1917 39.5086C65.7831 39.0591 65.2318 38.9172 64.7318 38.9172V40.9172ZM64.7791 40.9212C64.7607 40.9045 64.7467 40.8874 64.7367 40.8724C64.727 40.8578 64.7233 40.8486 64.7232 40.8482C64.7232 40.8482 64.7266 40.8572 64.7306 40.8781C64.7347 40.899 64.7388 40.93 64.7409 40.9728L66.7386 40.8777C66.7153 40.3877 66.5659 39.8426 66.1244 39.4413L64.7791 40.9212ZM64.7457 41.0342C64.8888 42.34 65.3313 43.4769 66.258 44.1898L67.4775 42.6046C67.1562 42.3575 66.8467 41.8464 66.7338 40.8163L64.7457 41.0342ZM66.2808 44.2068C67.1758 44.8557 68.4327 45.0932 69.8678 45.0932V43.0932C68.5828 43.0932 67.8397 42.8668 67.4547 42.5876L66.2808 44.2068ZM69.8678 45.0932H77.7398V43.0932H69.8678V45.0932ZM77.7398 45.0932C79.3829 45.0932 80.8314 44.7916 81.7202 43.8788L80.2873 42.4836C79.9921 42.7868 79.2646 43.0932 77.7398 43.0932V45.0932ZM81.72 43.8791C82.608 42.9677 82.9157 41.5437 82.9157 39.9172H80.9157C80.9157 41.3947 80.6155 42.1467 80.2875 42.4834L81.72 43.8791ZM82.9157 39.9172C82.9157 38.2823 82.611 36.8463 81.7109 35.9461L80.2966 37.3603C80.6125 37.6762 80.9157 38.4162 80.9157 39.9172H82.9157ZM81.7202 35.9556C80.8314 35.0428 79.3829 34.7412 77.7398 34.7412V36.7412C79.2646 36.7412 79.9921 37.0476 80.2873 37.3508L81.7202 35.9556ZM77.7398 34.7412H69.9638V36.7412H77.7398V34.7412ZM69.9638 34.7412C68.0814 34.7412 66.8987 34.2984 66.2009 33.6122L64.7986 35.0382C66.0208 36.2401 67.8141 36.7412 69.9638 36.7412V34.7412ZM66.2009 33.6122C65.5093 32.9321 65.0598 31.7653 65.0598 29.8852H63.0597C63.0597 32.0371 63.5702 33.8303 64.7986 35.0382L66.2009 33.6122ZM65.0598 29.8852C65.0598 27.9677 65.5119 26.7878 66.2009 26.1102L64.7986 24.6842C63.5676 25.8947 63.0597 27.7068 63.0597 29.8852H65.0598ZM66.2009 26.1102C66.8987 25.4241 68.0814 24.9812 69.9638 24.9812V22.9812C67.8141 22.9812 66.0208 23.4824 64.7986 24.6842L66.2009 26.1102ZM69.9638 24.9812H77.4997V22.9812H69.9638V24.9812ZM77.4997 24.9812C79.1566 24.9812 80.2769 25.3522 81.0027 25.9521C81.7116 26.5379 82.1847 27.4588 82.3118 28.8709L84.3037 28.6916C84.1428 26.9037 83.5039 25.4246 82.2768 24.4104C81.0666 23.4103 79.4269 22.9812 77.4997 22.9812V24.9812ZM82.3178 28.9226C82.3282 28.9952 82.3195 29.0136 82.3239 28.9956C82.3262 28.986 82.3315 28.9697 82.3418 28.95C82.3523 28.9301 82.3652 28.9122 82.3786 28.8975L83.8529 30.249C84.2892 29.773 84.3742 29.1756 84.2977 28.6398L82.3178 28.9226ZM82.4086 28.8661C82.4215 28.8533 82.435 28.843 82.4473 28.8354C82.4593 28.8281 82.4668 28.8255 82.4667 28.8255C82.465 28.8261 82.4307 28.8372 82.3477 28.8372V30.8372C82.8535 30.8372 83.4012 30.702 83.8229 30.2803L82.4086 28.8661ZM82.3477 28.8372C82.303 28.8372 82.2703 28.8345 82.248 28.8315C82.2257 28.8284 82.2162 28.8253 82.2168 28.8255C82.2176 28.8258 82.2291 28.8296 82.2473 28.8403C82.2659 28.8512 82.2883 28.8676 82.3109 28.8901L80.8966 30.3043C81.3184 30.7261 81.8741 30.8372 82.3477 30.8372V28.8372ZM82.3437 28.9245C82.3645 28.9474 82.313 28.9067 82.2817 28.6878L80.3018 28.9706C80.3665 29.4237 80.523 29.895 80.8638 30.2699L82.3437 28.9245ZM82.2876 28.7387C82.1785 27.5382 81.7757 26.4652 80.8692 25.8105L79.6983 27.4319C79.9438 27.6092 80.213 28.0083 80.2959 28.9198L82.2876 28.7387ZM80.8692 25.8105C80.0331 25.2067 78.8425 24.9972 77.4997 24.9972V26.9972C78.717 26.9972 79.3824 27.2038 79.6983 27.4319L80.8692 25.8105ZM77.4997 24.9972H69.9638V26.9972H77.4997V24.9972ZM69.9638 24.9972C68.4391 24.9972 67.0842 25.2787 66.2187 26.1202L67.6128 27.5542C67.8993 27.2757 68.5763 26.9972 69.9638 26.9972V24.9972ZM66.2086 26.1301C65.354 26.9848 65.0758 28.3529 65.0758 29.8852H67.0758C67.0758 28.4736 67.3575 27.8096 67.6229 27.5443L66.2086 26.1301ZM65.0758 29.8852C65.0758 31.3932 65.3569 32.7406 66.2086 33.5923L67.6229 32.1781C67.3546 31.9099 67.0758 31.2573 67.0758 29.8852H65.0758ZM66.2187 33.6022C67.0842 34.4437 68.4391 34.7252 69.9638 34.7252V32.7252C68.5763 32.7252 67.8993 32.4467 67.6128 32.1682L66.2187 33.6022ZM69.9638 34.7252H77.7398V32.7252H69.9638V34.7252ZM77.7398 34.7252C79.756 34.7252 81.011 35.1947 81.7366 35.9203L83.1509 34.5061C81.8925 33.2478 80.0116 32.7252 77.7398 32.7252V34.7252ZM81.7366 35.9203C82.4623 36.646 82.9318 37.901 82.9318 39.9172H84.9318C84.9318 37.6454 84.4092 35.7645 83.1509 34.5061L81.7366 35.9203ZM82.9318 39.9172C82.9318 41.9132 82.4642 43.1748 81.731 43.9198L83.1565 45.3227C84.4073 44.0516 84.9318 42.1773 84.9318 39.9172H82.9318ZM81.7366 43.9141C81.011 44.6398 79.756 45.1092 77.7398 45.1092V47.1092C80.0116 47.1092 81.8925 46.5867 83.1509 45.3283L81.7366 43.9141ZM77.7398 45.1092H69.8678V47.1092H77.7398V45.1092ZM92.3085 44.5012L91.5963 45.2032L91.6014 45.2084L91.6065 45.2134L92.3085 44.5012ZM92.3325 33.8692L91.6254 33.1621L92.3325 33.8692ZM108.797 32.1892V33.1892H109.804L109.796 32.1821L108.797 32.1892ZM107.333 27.4372L106.637 28.1562L106.644 28.1622L107.333 27.4372ZM94.8765 26.8132L95.3238 27.7077L95.3351 27.7018L94.8765 26.8132ZM93.1005 29.3572L92.1131 29.1992L92.1127 29.2013L93.1005 29.3572ZM92.7885 30.0772L92.0485 29.4045L92.0452 29.4083L92.7885 30.0772ZM91.3245 30.0532L90.5873 30.729L90.602 30.745L90.6174 30.7603L91.3245 30.0532ZM91.0845 29.2612L90.087 29.1912L90.0862 29.2024L90.0856 29.2137L91.0845 29.2612ZM93.3885 25.2772L92.884 24.4138L92.8798 24.4163L93.3885 25.2772ZM108.797 26.0452L108.085 26.7481L108.094 26.7566L108.797 26.0452ZM108.797 42.3172H109.797V38.572L107.93 41.8188L108.797 42.3172ZM104.645 43.5652L104.347 42.6105L104.343 42.6116L104.645 43.5652ZM107.549 41.7412L106.792 41.0868L106.785 41.0953L107.549 41.7412ZM108.797 38.4772L109.793 38.5603L109.797 38.5188V38.4772H108.797ZM108.797 34.2052H109.797V33.2052H108.797V34.2052ZM93.7485 35.3092L93.0414 34.6021H93.0414L93.7485 35.3092ZM93.7485 43.0612L93.0337 43.7605L93.0414 43.7684L93.0492 43.7761L93.7485 43.0612ZM97.6125 45.1572C95.3216 45.1572 93.8641 44.6305 93.0105 43.7891L91.6065 45.2134C92.9929 46.58 95.0714 47.1572 97.6125 47.1572V45.1572ZM93.0207 43.7992C92.1793 42.9456 91.6525 41.4881 91.6525 39.1972H89.6525C89.6525 41.7384 90.2297 43.8168 91.5963 45.2032L93.0207 43.7992ZM91.6525 39.1972C91.6525 36.8914 92.1867 35.4292 93.0396 34.5763L91.6254 33.1621C90.2383 34.5492 89.6525 36.639 89.6525 39.1972H91.6525ZM93.0396 34.5763C93.8946 33.7213 95.3432 33.1892 97.6125 33.1892V31.1892C95.0818 31.1892 93.0104 31.7771 91.6254 33.1621L93.0396 34.5763ZM97.6125 33.1892H108.797V31.1892H97.6125V33.1892ZM109.796 32.1821C109.78 29.8345 109.279 27.9068 108.021 26.7122L106.644 28.1622C107.306 28.7916 107.781 30.0319 107.797 32.1963L109.796 32.1821ZM108.028 26.7182C106.784 25.5163 104.815 25.0452 102.412 25.0452V27.0452C104.65 27.0452 105.961 27.5022 106.637 28.1562L108.028 26.7182ZM102.412 25.0452H99.6285V27.0452H102.412V25.0452ZM99.6285 25.0452C97.417 25.0452 95.6314 25.2983 94.4179 25.9246L95.3351 27.7018C96.1056 27.3042 97.488 27.0452 99.6285 27.0452V25.0452ZM94.4293 25.9188C93.1184 26.5743 92.3503 27.7165 92.1131 29.1992L94.0879 29.5152C94.2347 28.5979 94.6506 28.0442 95.3237 27.7077L94.4293 25.9188ZM92.1127 29.2013C92.0996 29.2843 92.0822 29.3371 92.0689 29.3676C92.0624 29.3826 92.057 29.3921 92.0537 29.3974C92.052 29.4001 92.0507 29.4019 92.0499 29.4029C92.0491 29.404 92.0486 29.4045 92.0486 29.4046L93.5284 30.7499C93.8532 30.3926 94.0187 29.9539 94.0883 29.5132L92.1127 29.2013ZM92.0452 29.4083C92.0716 29.3789 92.0998 29.356 92.126 29.3393C92.1516 29.3229 92.1714 29.315 92.1805 29.3119C92.1958 29.3066 92.1734 29.3172 92.0925 29.3172V31.3172C92.5569 31.3172 93.1217 31.2019 93.5318 30.7462L92.0452 29.4083ZM92.0925 29.3172C92.0095 29.3172 91.9752 29.3061 91.9736 29.3055C91.9735 29.3055 91.9809 29.3081 91.993 29.3154C92.0052 29.323 92.0188 29.3333 92.0316 29.3461L90.6174 30.7603C91.0391 31.182 91.5867 31.3172 92.0925 31.3172V29.3172ZM92.0617 29.3775C92.0698 29.3864 92.077 29.3964 92.0825 29.4062C92.0879 29.4158 92.0896 29.4216 92.0895 29.4212C92.089 29.4195 92.0797 29.3869 92.0834 29.3088L90.0856 29.2137C90.0608 29.7348 90.1828 30.2876 90.5873 30.729L92.0617 29.3775ZM92.082 29.3312C92.1902 27.79 92.8091 26.7811 93.8972 26.1382L92.8798 24.4163C91.1519 25.4373 90.2348 27.0844 90.087 29.1912L92.082 29.3312ZM93.893 26.1407C95.0939 25.439 96.9659 25.0292 99.6285 25.0292V23.0292C96.8191 23.0292 94.5311 23.4515 92.884 24.4138L93.893 26.1407ZM99.6285 25.0292H102.412V23.0292H99.6285V25.0292ZM102.412 25.0292C105.217 25.0292 107.026 25.6765 108.085 26.7481L109.508 25.3424C107.911 23.726 105.464 23.0292 102.412 23.0292V25.0292ZM108.094 26.7566C109.165 27.8154 109.812 29.625 109.812 32.4292H111.812C111.812 29.3775 111.116 26.9311 109.499 25.3339L108.094 26.7566ZM109.812 32.4292V45.1492H111.812V32.4292H109.812ZM109.812 45.1492C109.812 45.1919 109.81 45.223 109.807 45.2441C109.804 45.265 109.801 45.2741 109.801 45.274C109.801 45.2736 109.804 45.2641 109.813 45.249C109.818 45.2415 109.823 45.2332 109.83 45.2243C109.837 45.2155 109.845 45.2067 109.853 45.1981C109.862 45.1896 109.871 45.1818 109.88 45.1749C109.888 45.1681 109.897 45.1625 109.904 45.158C109.919 45.1489 109.929 45.1457 109.929 45.1455C109.929 45.1455 109.92 45.1485 109.899 45.1515C109.878 45.1545 109.847 45.1572 109.805 45.1572V47.1572C110.295 47.1572 110.846 47.034 111.268 46.6123C111.689 46.1907 111.812 45.6394 111.812 45.1492H109.812ZM109.805 45.1572C109.762 45.1572 109.731 45.1545 109.71 45.1515C109.689 45.1485 109.68 45.1455 109.68 45.1455C109.68 45.1457 109.69 45.1489 109.705 45.158C109.712 45.1625 109.721 45.1681 109.729 45.1749C109.738 45.1818 109.747 45.1896 109.756 45.1981C109.764 45.2067 109.772 45.2155 109.779 45.2243C109.786 45.2332 109.791 45.2415 109.796 45.249C109.805 45.2641 109.808 45.2736 109.808 45.274C109.808 45.2741 109.805 45.265 109.802 45.2441C109.799 45.223 109.797 45.1919 109.797 45.1492H107.797C107.797 45.6394 107.92 46.1907 108.341 46.6123C108.763 47.034 109.314 47.1572 109.805 47.1572V45.1572ZM109.797 45.1492V42.3172H107.797V45.1492H109.797ZM107.93 41.8188C106.706 43.9467 104.302 45.1572 100.3 45.1572V47.1572C104.683 47.1572 107.943 45.8077 109.663 42.8157L107.93 41.8188ZM100.3 45.1572H97.6125V47.1572H100.3V45.1572ZM97.6125 45.1412H100.3V43.1412H97.6125V45.1412ZM100.3 45.1412C102.052 45.1412 103.607 44.9416 104.946 44.5188L104.343 42.6116C103.25 42.9569 101.909 43.1412 100.3 43.1412V45.1412ZM104.942 44.5199C106.322 44.0899 107.464 43.3892 108.312 42.3872L106.785 41.0953C106.225 41.7573 105.431 42.2725 104.347 42.6105L104.942 44.5199ZM108.305 42.3956C109.192 41.3702 109.667 40.0668 109.793 38.5603L107.8 38.3942C107.701 39.5756 107.345 40.4483 106.792 41.0868L108.305 42.3956ZM109.797 38.4772V34.2052H107.797V38.4772H109.797ZM108.797 33.2052H97.6125V35.2052H108.797V33.2052ZM97.6125 33.2052C95.6948 33.2052 94.0653 33.5782 93.0414 34.6021L94.4556 36.0163C94.9037 35.5683 95.8502 35.2052 97.6125 35.2052V33.2052ZM93.0414 34.6021C92.0282 35.6154 91.6685 37.2611 91.6685 39.1972H93.6685C93.6685 37.3894 94.0288 36.4431 94.4556 36.0163L93.0414 34.6021ZM91.6685 39.1972C91.6685 41.1107 92.0319 42.7365 93.0337 43.7605L94.4633 42.3619C94.0251 41.914 93.6685 40.9637 93.6685 39.1972H91.6685ZM93.0492 43.7761C94.0733 44.7779 95.699 45.1412 97.6125 45.1412V43.1412C95.846 43.1412 94.8957 42.7846 94.4478 42.3464L93.0492 43.7761Z" fill="black" mask="url(#path-1-outside-1_105_164)"/>
<mask id="path-3-outside-2_105_164" maskUnits="userSpaceOnUse" x="114" y="11.1572" width="106" height="37" fill="black">
<rect fill="white" x="114" y="11.1572" width="106" height="37"/>
<path d="M116.328 46.1572C115.656 46.1572 115.32 45.8212 115.32 45.1492V16.7812C115.32 16.1092 115.656 15.7732 116.328 15.7732H128.856C131.144 15.7732 132.864 16.3412 134.016 17.4772C135.184 18.6132 135.768 20.3012 135.768 22.5412V23.8372C135.768 26.4772 134.92 28.2852 133.224 29.2612C136.104 30.3332 137.544 32.7972 137.544 36.6532V38.1412C137.544 40.7812 136.864 42.7812 135.504 44.1412C134.16 45.4852 132.152 46.1572 129.48 46.1572H116.328ZM117.336 44.1412H129.48C131.592 44.1412 133.128 43.6612 134.088 42.7012C135.048 41.7412 135.528 40.2212 135.528 38.1412V36.6532C135.528 34.5572 135.048 33.0452 134.088 32.1172C133.128 31.1732 131.592 30.7012 129.48 30.7012H117.336V44.1412ZM117.336 28.6852H129.048C130.616 28.6852 131.792 28.3092 132.576 27.5572C133.36 26.8052 133.752 25.5652 133.752 23.8372V22.5412C133.752 20.8772 133.36 19.6692 132.576 18.9172C131.808 18.1652 130.568 17.7892 128.856 17.7892H117.336V28.6852ZM152.162 46.1572C149.234 46.1572 147.098 45.4932 145.754 44.1652C144.426 42.8212 143.762 40.7012 143.762 37.8052V32.4292C143.762 29.4692 144.426 27.3252 145.754 25.9972C147.098 24.6532 149.234 23.9972 152.162 24.0292H156.098C159.026 24.0292 161.154 24.7012 162.482 26.0452C163.826 27.3732 164.498 29.5012 164.498 32.4292V37.7572C164.498 40.6852 163.826 42.8212 162.482 44.1652C161.154 45.4932 159.026 46.1572 156.098 46.1572H152.162ZM145.778 37.8052C145.778 40.1252 146.25 41.7652 147.194 42.7252C148.154 43.6692 149.81 44.1412 152.162 44.1412H156.098C158.45 44.1412 160.098 43.6692 161.042 42.7252C162.002 41.7652 162.482 40.1092 162.482 37.7572V32.4292C162.482 30.0772 162.002 28.4292 161.042 27.4852C160.098 26.5252 158.45 26.0452 156.098 26.0452H152.162C150.594 26.0292 149.338 26.2292 148.394 26.6452C147.466 27.0452 146.794 27.7172 146.378 28.6612C145.978 29.5892 145.778 30.8452 145.778 32.4292V37.8052ZM180.568 46.1572C177.64 46.1572 175.504 45.4932 174.16 44.1652C172.832 42.8212 172.168 40.7012 172.168 37.8052V32.4292C172.168 29.4692 172.832 27.3252 174.16 25.9972C175.504 24.6532 177.64 23.9972 180.568 24.0292H184.504C187.432 24.0292 189.56 24.7012 190.888 26.0452C192.232 27.3732 192.904 29.5012 192.904 32.4292V37.7572C192.904 40.6852 192.232 42.8212 190.888 44.1652C189.56 45.4932 187.432 46.1572 184.504 46.1572H180.568ZM174.184 37.8052C174.184 40.1252 174.656 41.7652 175.6 42.7252C176.56 43.6692 178.216 44.1412 180.568 44.1412H184.504C186.856 44.1412 188.504 43.6692 189.448 42.7252C190.408 41.7652 190.888 40.1092 190.888 37.7572V32.4292C190.888 30.0772 190.408 28.4292 189.448 27.4852C188.504 26.5252 186.856 26.0452 184.504 26.0452H180.568C179 26.0292 177.744 26.2292 176.8 26.6452C175.872 27.0452 175.2 27.7172 174.784 28.6612C174.384 29.5892 174.184 30.8452 174.184 32.4292V37.8052ZM202.062 46.1572C201.39 46.1572 201.054 45.8212 201.054 45.1492V14.0452C201.054 13.3732 201.39 13.0372 202.062 13.0372C202.734 13.0372 203.07 13.3732 203.07 14.0452V34.6132L215.502 23.9332C215.982 23.5012 216.446 23.5332 216.894 24.0292C217.342 24.5252 217.31 25.0052 216.798 25.4692L207.942 33.0772L217.95 44.4292C218.398 44.9252 218.366 45.4052 217.854 45.8692C217.374 46.3012 216.91 46.2692 216.462 45.7732L206.382 34.3972L203.07 37.2532V45.1492C203.07 45.8212 202.734 46.1572 202.062 46.1572Z"/>
</mask>
<path d="M116.328 46.1572C115.656 46.1572 115.32 45.8212 115.32 45.1492V16.7812C115.32 16.1092 115.656 15.7732 116.328 15.7732H128.856C131.144 15.7732 132.864 16.3412 134.016 17.4772C135.184 18.6132 135.768 20.3012 135.768 22.5412V23.8372C135.768 26.4772 134.92 28.2852 133.224 29.2612C136.104 30.3332 137.544 32.7972 137.544 36.6532V38.1412C137.544 40.7812 136.864 42.7812 135.504 44.1412C134.16 45.4852 132.152 46.1572 129.48 46.1572H116.328ZM117.336 44.1412H129.48C131.592 44.1412 133.128 43.6612 134.088 42.7012C135.048 41.7412 135.528 40.2212 135.528 38.1412V36.6532C135.528 34.5572 135.048 33.0452 134.088 32.1172C133.128 31.1732 131.592 30.7012 129.48 30.7012H117.336V44.1412ZM117.336 28.6852H129.048C130.616 28.6852 131.792 28.3092 132.576 27.5572C133.36 26.8052 133.752 25.5652 133.752 23.8372V22.5412C133.752 20.8772 133.36 19.6692 132.576 18.9172C131.808 18.1652 130.568 17.7892 128.856 17.7892H117.336V28.6852ZM152.162 46.1572C149.234 46.1572 147.098 45.4932 145.754 44.1652C144.426 42.8212 143.762 40.7012 143.762 37.8052V32.4292C143.762 29.4692 144.426 27.3252 145.754 25.9972C147.098 24.6532 149.234 23.9972 152.162 24.0292H156.098C159.026 24.0292 161.154 24.7012 162.482 26.0452C163.826 27.3732 164.498 29.5012 164.498 32.4292V37.7572C164.498 40.6852 163.826 42.8212 162.482 44.1652C161.154 45.4932 159.026 46.1572 156.098 46.1572H152.162ZM145.778 37.8052C145.778 40.1252 146.25 41.7652 147.194 42.7252C148.154 43.6692 149.81 44.1412 152.162 44.1412H156.098C158.45 44.1412 160.098 43.6692 161.042 42.7252C162.002 41.7652 162.482 40.1092 162.482 37.7572V32.4292C162.482 30.0772 162.002 28.4292 161.042 27.4852C160.098 26.5252 158.45 26.0452 156.098 26.0452H152.162C150.594 26.0292 149.338 26.2292 148.394 26.6452C147.466 27.0452 146.794 27.7172 146.378 28.6612C145.978 29.5892 145.778 30.8452 145.778 32.4292V37.8052ZM180.568 46.1572C177.64 46.1572 175.504 45.4932 174.16 44.1652C172.832 42.8212 172.168 40.7012 172.168 37.8052V32.4292C172.168 29.4692 172.832 27.3252 174.16 25.9972C175.504 24.6532 177.64 23.9972 180.568 24.0292H184.504C187.432 24.0292 189.56 24.7012 190.888 26.0452C192.232 27.3732 192.904 29.5012 192.904 32.4292V37.7572C192.904 40.6852 192.232 42.8212 190.888 44.1652C189.56 45.4932 187.432 46.1572 184.504 46.1572H180.568ZM174.184 37.8052C174.184 40.1252 174.656 41.7652 175.6 42.7252C176.56 43.6692 178.216 44.1412 180.568 44.1412H184.504C186.856 44.1412 188.504 43.6692 189.448 42.7252C190.408 41.7652 190.888 40.1092 190.888 37.7572V32.4292C190.888 30.0772 190.408 28.4292 189.448 27.4852C188.504 26.5252 186.856 26.0452 184.504 26.0452H180.568C179 26.0292 177.744 26.2292 176.8 26.6452C175.872 27.0452 175.2 27.7172 174.784 28.6612C174.384 29.5892 174.184 30.8452 174.184 32.4292V37.8052ZM202.062 46.1572C201.39 46.1572 201.054 45.8212 201.054 45.1492V14.0452C201.054 13.3732 201.39 13.0372 202.062 13.0372C202.734 13.0372 203.07 13.3732 203.07 14.0452V34.6132L215.502 23.9332C215.982 23.5012 216.446 23.5332 216.894 24.0292C217.342 24.5252 217.31 25.0052 216.798 25.4692L207.942 33.0772L217.95 44.4292C218.398 44.9252 218.366 45.4052 217.854 45.8692C217.374 46.3012 216.91 46.2692 216.462 45.7732L206.382 34.3972L203.07 37.2532V45.1492C203.07 45.8212 202.734 46.1572 202.062 46.1572Z" fill="#3E1890"/>
<path d="M134.016 17.4772L133.314 18.1893L133.319 18.1941L134.016 17.4772ZM133.224 29.2612L132.725 28.3945L130.881 29.456L132.875 30.1984L133.224 29.2612ZM135.504 44.1412L134.797 43.4341L135.504 44.1412ZM117.336 44.1412H116.336V45.1412H117.336V44.1412ZM134.088 32.1172L133.387 32.8303L133.393 32.8362L134.088 32.1172ZM117.336 30.7012V29.7012H116.336V30.7012H117.336ZM117.336 28.6852H116.336V29.6852H117.336V28.6852ZM132.576 18.9172L131.876 19.6318L131.884 19.6389L132.576 18.9172ZM117.336 17.7892V16.7892H116.336V17.7892H117.336ZM116.328 45.1572C116.285 45.1572 116.254 45.1545 116.233 45.1515C116.212 45.1485 116.203 45.1455 116.203 45.1455C116.204 45.1457 116.213 45.1489 116.228 45.158C116.236 45.1625 116.244 45.1681 116.253 45.1749C116.262 45.1818 116.271 45.1896 116.279 45.1981C116.288 45.2067 116.295 45.2155 116.302 45.2243C116.309 45.2332 116.315 45.2415 116.319 45.249C116.328 45.2641 116.332 45.2736 116.332 45.274C116.332 45.2741 116.329 45.265 116.326 45.2441C116.323 45.223 116.32 45.1919 116.32 45.1492H114.32C114.32 45.6394 114.443 46.1907 114.865 46.6123C115.287 47.034 115.838 47.1572 116.328 47.1572V45.1572ZM116.32 45.1492V16.7812H114.32V45.1492H116.32ZM116.32 16.7812C116.32 16.7385 116.323 16.7074 116.326 16.6864C116.329 16.6654 116.332 16.6563 116.332 16.6565C116.332 16.6569 116.328 16.6664 116.319 16.6815C116.315 16.6889 116.309 16.6973 116.302 16.7061C116.295 16.715 116.288 16.7238 116.279 16.7323C116.271 16.7409 116.262 16.7486 116.253 16.7555C116.244 16.7624 116.236 16.768 116.228 16.7725C116.213 16.7815 116.204 16.7848 116.203 16.7849C116.203 16.7849 116.212 16.7819 116.233 16.7789C116.254 16.7759 116.285 16.7732 116.328 16.7732V14.7732C115.838 14.7732 115.287 14.8964 114.865 15.3181C114.443 15.7398 114.32 16.2911 114.32 16.7812H116.32ZM116.328 16.7732H128.856V14.7732H116.328V16.7732ZM128.856 16.7732C130.991 16.7732 132.415 17.3027 133.314 18.1893L134.718 16.7652C133.313 15.3797 131.297 14.7732 128.856 14.7732V16.7732ZM133.319 18.1941C134.23 19.08 134.768 20.4674 134.768 22.5412H136.768C136.768 20.135 136.138 18.1465 134.713 16.7604L133.319 18.1941ZM134.768 22.5412V23.8372H136.768V22.5412H134.768ZM134.768 23.8372C134.768 26.2611 134.005 27.6579 132.725 28.3945L133.723 30.128C135.835 28.9126 136.768 26.6933 136.768 23.8372H134.768ZM132.875 30.1984C134.117 30.6605 135.006 31.4009 135.601 32.4178C136.205 33.4521 136.544 34.8426 136.544 36.6532H138.544C138.544 34.6079 138.163 32.8384 137.327 31.4087C136.482 29.9616 135.211 28.9339 133.573 28.324L132.875 30.1984ZM136.544 36.6532V38.1412H138.544V36.6532H136.544ZM136.544 38.1412C136.544 40.617 135.908 42.3227 134.797 43.4341L136.211 44.8483C137.82 43.2397 138.544 40.9454 138.544 38.1412H136.544ZM134.797 43.4341C133.706 44.5254 131.996 45.1572 129.48 45.1572V47.1572C132.308 47.1572 134.614 46.445 136.211 44.8483L134.797 43.4341ZM129.48 45.1572H116.328V47.1572H129.48V45.1572ZM117.336 45.1412H129.48V43.1412H117.336V45.1412ZM129.48 45.1412C131.714 45.1412 133.566 44.6375 134.795 43.4083L133.381 41.9941C132.69 42.685 131.47 43.1412 129.48 43.1412V45.1412ZM134.795 43.4083C136.022 42.1816 136.528 40.3482 136.528 38.1412H134.528C134.528 40.0943 134.074 41.3009 133.381 41.9941L134.795 43.4083ZM136.528 38.1412V36.6532H134.528V38.1412H136.528ZM136.528 36.6532C136.528 34.4368 136.025 32.5985 134.783 31.3982L133.393 32.8362C134.071 33.492 134.528 34.6777 134.528 36.6532H136.528ZM134.789 31.4042C133.56 30.1952 131.71 29.7012 129.48 29.7012V31.7012C131.474 31.7012 132.696 32.1512 133.387 32.8302L134.789 31.4042ZM129.48 29.7012H117.336V31.7012H129.48V29.7012ZM116.336 30.7012V44.1412H118.336V30.7012H116.336ZM117.336 29.6852H129.048V27.6852H117.336V29.6852ZM129.048 29.6852C130.76 29.6852 132.229 29.2753 133.268 28.2789L131.884 26.8355C131.355 27.3431 130.472 27.6852 129.048 27.6852V29.6852ZM133.268 28.2789C134.339 27.2523 134.752 25.6814 134.752 23.8372H132.752C132.752 25.449 132.381 26.3582 131.884 26.8355L133.268 28.2789ZM134.752 23.8372V22.5412H132.752V23.8372H134.752ZM134.752 22.5412C134.752 20.7477 134.332 19.2163 133.268 18.1955L131.884 19.6389C132.388 20.1222 132.752 21.0068 132.752 22.5412H134.752ZM133.276 18.2027C132.236 17.1848 130.681 16.7892 128.856 16.7892V18.7892C130.455 18.7892 131.38 19.1456 131.876 19.6317L133.276 18.2027ZM128.856 16.7892H117.336V18.7892H128.856V16.7892ZM116.336 17.7892V28.6852H118.336V17.7892H116.336ZM145.754 44.1652L145.042 44.8681L145.051 44.8766L145.754 44.1652ZM145.754 25.9972L145.047 25.2901L145.754 25.9972ZM152.162 24.0292L152.151 25.0292H152.162V24.0292ZM162.482 26.0452L161.77 26.7481L161.779 26.7566L162.482 26.0452ZM162.482 44.1652L163.189 44.8723L162.482 44.1652ZM147.194 42.7252L146.481 43.4264L146.487 43.4324L146.493 43.4383L147.194 42.7252ZM161.042 42.7252L161.749 43.4323L161.042 42.7252ZM161.042 27.4852L160.329 28.1864L160.335 28.1924L160.341 28.1982L161.042 27.4852ZM152.162 26.0452L152.152 27.0452H152.162V26.0452ZM148.394 26.6452L148.79 27.5636L148.797 27.5603L148.394 26.6452ZM146.378 28.6612L145.463 28.258L145.46 28.2654L146.378 28.6612ZM152.162 45.1572C149.356 45.1572 147.533 44.5172 146.457 43.4539L145.051 44.8766C146.663 46.4692 149.112 47.1572 152.162 47.1572V45.1572ZM146.465 43.4624C145.4 42.3845 144.762 40.5752 144.762 37.8052H142.762C142.762 40.8273 143.452 43.2579 145.043 44.8681L146.465 43.4624ZM144.762 37.8052V32.4292H142.762V37.8052H144.762ZM144.762 32.4292C144.762 29.5865 145.404 27.7612 146.461 26.7043L145.047 25.2901C143.448 26.8893 142.762 29.352 142.762 32.4292H144.762ZM146.461 26.7043C147.533 25.632 149.349 24.9985 152.151 25.0292L152.173 23.0293C149.118 22.9959 146.662 23.6744 145.047 25.2901L146.461 26.7043ZM152.162 25.0292H156.098V23.0292H152.162V25.0292ZM156.098 25.0292C158.902 25.0292 160.712 25.6765 161.771 26.7481L163.193 25.3424C161.596 23.726 159.15 23.0292 156.098 23.0292V25.0292ZM161.779 26.7566C162.851 27.8154 163.498 29.625 163.498 32.4292H165.498C165.498 29.3775 164.801 26.9311 163.185 25.3339L161.779 26.7566ZM163.498 32.4292V37.7572H165.498V32.4292H163.498ZM163.498 37.7572C163.498 40.5601 162.851 42.3817 161.775 43.4581L163.189 44.8723C164.801 43.2607 165.498 40.8103 165.498 37.7572H163.498ZM161.775 43.4581C160.716 44.5166 158.905 45.1572 156.098 45.1572V47.1572C159.147 47.1572 161.592 46.4698 163.189 44.8723L161.775 43.4581ZM156.098 45.1572H152.162V47.1572H156.098V45.1572ZM144.778 37.8052C144.778 40.2113 145.258 42.183 146.481 43.4264L147.907 42.0241C147.242 41.3474 146.778 40.0392 146.778 37.8052H144.778ZM146.493 43.4383C147.738 44.6628 149.729 45.1412 152.162 45.1412V43.1412C149.891 43.1412 148.57 42.6757 147.895 42.0122L146.493 43.4383ZM152.162 45.1412H156.098V43.1412H152.162V45.1412ZM156.098 45.1412C158.529 45.1412 160.518 44.6638 161.749 43.4323L160.335 42.0181C159.678 42.6747 158.371 43.1412 156.098 43.1412V45.1412ZM161.749 43.4323C162.994 42.1872 163.482 40.1939 163.482 37.7572H161.482C161.482 40.0245 161.01 41.3432 160.335 42.0181L161.749 43.4323ZM163.482 37.7572V32.4292H161.482V37.7572H163.482ZM163.482 32.4292C163.482 29.995 162.995 28.0034 161.743 26.7722L160.341 28.1982C161.009 28.855 161.482 30.1595 161.482 32.4292H163.482ZM161.755 26.7841C160.524 25.532 158.532 25.0452 156.098 25.0452V27.0452C158.368 27.0452 159.672 27.5185 160.329 28.1864L161.755 26.7841ZM156.098 25.0452H152.162V27.0452H156.098V25.0452ZM152.172 25.0453C150.529 25.0285 149.115 25.2348 147.991 25.7301L148.797 27.5603C149.561 27.2237 150.659 27.0299 152.152 27.0452L152.172 25.0453ZM147.998 25.7269C146.833 26.2292 145.978 27.0882 145.463 28.258L147.293 29.0645C147.609 28.3462 148.099 27.8613 148.79 27.5636L147.998 25.7269ZM145.46 28.2654C144.984 29.3691 144.778 30.778 144.778 32.4292H146.778C146.778 30.9125 146.972 29.8094 147.296 29.0571L145.46 28.2654ZM144.778 32.4292V37.8052H146.778V32.4292H144.778ZM174.16 44.1652L173.449 44.8681L173.457 44.8766L174.16 44.1652ZM174.16 25.9972L173.453 25.2901L174.16 25.9972ZM180.568 24.0292L180.557 25.0292H180.568V24.0292ZM190.888 26.0452L190.177 26.7481L190.185 26.7566L190.888 26.0452ZM190.888 44.1652L191.595 44.8723L190.888 44.1652ZM175.6 42.7252L174.887 43.4264L174.893 43.4324L174.899 43.4383L175.6 42.7252ZM189.448 42.7252L190.155 43.4323L189.448 42.7252ZM189.448 27.4852L188.735 28.1864L188.741 28.1924L188.747 28.1982L189.448 27.4852ZM180.568 26.0452L180.558 27.0452H180.568V26.0452ZM176.8 26.6452L177.196 27.5636L177.203 27.5603L176.8 26.6452ZM174.784 28.6612L173.869 28.258L173.866 28.2654L174.784 28.6612ZM180.568 45.1572C177.762 45.1572 175.939 44.5172 174.863 43.4539L173.457 44.8766C175.069 46.4692 177.518 47.1572 180.568 47.1572V45.1572ZM174.871 43.4624C173.806 42.3845 173.168 40.5752 173.168 37.8052H171.168C171.168 40.8273 171.858 43.2579 173.449 44.8681L174.871 43.4624ZM173.168 37.8052V32.4292H171.168V37.8052H173.168ZM173.168 32.4292C173.168 29.5865 173.81 27.7612 174.867 26.7043L173.453 25.2901C171.854 26.8893 171.168 29.352 171.168 32.4292H173.168ZM174.867 26.7043C175.94 25.632 177.756 24.9985 180.557 25.0292L180.579 23.0293C177.525 22.9959 175.069 23.6744 173.453 25.2901L174.867 26.7043ZM180.568 25.0292H184.504V23.0292H180.568V25.0292ZM184.504 25.0292C187.308 25.0292 189.118 25.6765 190.177 26.7481L191.599 25.3424C190.002 23.726 187.556 23.0292 184.504 23.0292V25.0292ZM190.185 26.7566C191.257 27.8154 191.904 29.625 191.904 32.4292H193.904C193.904 29.3775 193.207 26.9311 191.591 25.3339L190.185 26.7566ZM191.904 32.4292V37.7572H193.904V32.4292H191.904ZM191.904 37.7572C191.904 40.5601 191.257 42.3817 190.181 43.4581L191.595 44.8723C193.207 43.2607 193.904 40.8103 193.904 37.7572H191.904ZM190.181 43.4581C189.122 44.5166 187.311 45.1572 184.504 45.1572V47.1572C187.553 47.1572 189.998 46.4698 191.595 44.8723L190.181 43.4581ZM184.504 45.1572H180.568V47.1572H184.504V45.1572ZM173.184 37.8052C173.184 40.2113 173.664 42.183 174.887 43.4264L176.313 42.0241C175.648 41.3474 175.184 40.0392 175.184 37.8052H173.184ZM174.899 43.4383C176.144 44.6628 178.135 45.1412 180.568 45.1412V43.1412C178.297 43.1412 176.976 42.6757 176.301 42.0122L174.899 43.4383ZM180.568 45.1412H184.504V43.1412H180.568V45.1412ZM184.504 45.1412C186.935 45.1412 188.924 44.6638 190.155 43.4323L188.741 42.0181C188.084 42.6747 186.777 43.1412 184.504 43.1412V45.1412ZM190.155 43.4323C191.4 42.1872 191.888 40.1939 191.888 37.7572H189.888C189.888 40.0245 189.416 41.3432 188.741 42.0181L190.155 43.4323ZM191.888 37.7572V32.4292H189.888V37.7572H191.888ZM191.888 32.4292C191.888 29.995 191.401 28.0034 190.149 26.7722L188.747 28.1982C189.415 28.855 189.888 30.1595 189.888 32.4292H191.888ZM190.161 26.7841C188.93 25.532 186.938 25.0452 184.504 25.0452V27.0452C186.774 27.0452 188.078 27.5185 188.735 28.1864L190.161 26.7841ZM184.504 25.0452H180.568V27.0452H184.504V25.0452ZM180.578 25.0453C178.935 25.0285 177.521 25.2348 176.397 25.7301L177.203 27.5603C177.967 27.2237 179.065 27.0299 180.558 27.0452L180.578 25.0453ZM176.404 25.7269C175.239 26.2292 174.385 27.0882 173.869 28.258L175.699 29.0645C176.016 28.3462 176.505 27.8613 177.196 27.5636L176.404 25.7269ZM173.866 28.2654C173.39 29.3691 173.184 30.778 173.184 32.4292H175.184C175.184 30.9125 175.378 29.8094 175.702 29.0571L173.866 28.2654ZM173.184 32.4292V37.8052H175.184V32.4292H173.184ZM203.07 34.6132H202.07V36.7906L203.722 35.3718L203.07 34.6132ZM215.502 23.9332L216.154 24.6918L216.163 24.6842L216.171 24.6765L215.502 23.9332ZM216.798 25.4692L217.45 26.2278L217.46 26.2191L217.47 26.2102L216.798 25.4692ZM207.942 33.0772L207.291 32.3187L206.522 32.9787L207.192 33.7385L207.942 33.0772ZM217.95 44.4292L217.2 45.0906L217.208 45.0995L217.95 44.4292ZM217.854 45.8692L218.523 46.6125L218.526 46.6102L217.854 45.8692ZM216.462 45.7732L215.714 46.4364L215.72 46.4435L216.462 45.7732ZM206.382 34.3972L207.131 33.734L206.477 32.9956L205.729 33.6399L206.382 34.3972ZM203.07 37.2532L202.417 36.4959L202.07 36.7951V37.2532H203.07ZM202.062 45.1572C202.02 45.1572 201.989 45.1545 201.968 45.1515C201.947 45.1485 201.937 45.1455 201.938 45.1455C201.938 45.1457 201.948 45.1489 201.963 45.158C201.97 45.1625 201.978 45.1681 201.987 45.1749C201.996 45.1818 202.005 45.1896 202.013 45.1981C202.022 45.2067 202.03 45.2155 202.037 45.2243C202.044 45.2332 202.049 45.2415 202.054 45.249C202.063 45.2641 202.066 45.2736 202.066 45.274C202.066 45.2741 202.063 45.265 202.06 45.2441C202.057 45.223 202.054 45.1919 202.054 45.1492H200.054C200.054 45.6394 200.178 46.1907 200.599 46.6123C201.021 47.034 201.572 47.1572 202.062 47.1572V45.1572ZM202.054 45.1492V14.0452H200.054V45.1492H202.054ZM202.054 14.0452C202.054 14.0025 202.057 13.9714 202.06 13.9504C202.063 13.9294 202.066 13.9203 202.066 13.9205C202.066 13.9209 202.063 13.9304 202.054 13.9455C202.049 13.9529 202.044 13.9613 202.037 13.9701C202.03 13.979 202.022 13.9878 202.013 13.9963C202.005 14.0049 201.996 14.0126 201.987 14.0195C201.978 14.0264 201.97 14.032 201.963 14.0365C201.948 14.0455 201.938 14.0488 201.938 14.0489C201.937 14.0489 201.947 14.0459 201.968 14.0429C201.989 14.0399 202.02 14.0372 202.062 14.0372V12.0372C201.572 12.0372 201.021 12.1604 200.599 12.5821C200.178 13.0038 200.054 13.5551 200.054 14.0452H202.054ZM202.062 14.0372C202.105 14.0372 202.136 14.0399 202.157 14.0429C202.178 14.0459 202.187 14.0489 202.187 14.0489C202.187 14.0488 202.177 14.0455 202.162 14.0365C202.155 14.032 202.146 14.0264 202.137 14.0195C202.129 14.0126 202.12 14.0049 202.111 13.9963C202.103 13.9878 202.095 13.979 202.088 13.9701C202.081 13.9613 202.076 13.9529 202.071 13.9455C202.062 13.9304 202.059 13.9209 202.059 13.9205C202.059 13.9203 202.062 13.9294 202.065 13.9504C202.068 13.9714 202.07 14.0025 202.07 14.0452H204.07C204.07 13.5551 203.947 13.0038 203.525 12.5821C203.104 12.1604 202.553 12.0372 202.062 12.0372V14.0372ZM202.07 14.0452V34.6132H204.07V14.0452H202.07ZM203.722 35.3718L216.154 24.6918L214.851 23.1747L202.419 33.8547L203.722 35.3718ZM216.171 24.6765C216.2 24.6511 216.221 24.6353 216.235 24.6261C216.248 24.617 216.253 24.6153 216.25 24.617C216.245 24.6188 216.233 24.6236 216.212 24.6272C216.192 24.631 216.167 24.6326 216.142 24.6309C216.116 24.6291 216.094 24.6242 216.077 24.6189C216.061 24.6137 216.053 24.6092 216.054 24.6097C216.055 24.6103 216.065 24.6159 216.082 24.6304C216.099 24.6449 216.123 24.6671 216.152 24.6995L217.636 23.3589C217.315 23.0027 216.864 22.6759 216.279 22.6356C215.686 22.5947 215.195 22.8648 214.833 23.1899L216.171 24.6765ZM216.152 24.6995C216.18 24.7298 216.197 24.7532 216.208 24.7692C216.218 24.7851 216.221 24.7922 216.22 24.7903C216.22 24.7882 216.215 24.7776 216.212 24.7594C216.209 24.7408 216.207 24.7186 216.209 24.6947C216.21 24.6709 216.215 24.6509 216.219 24.6363C216.224 24.6221 216.228 24.6162 216.226 24.6189C216.224 24.6219 216.217 24.6332 216.201 24.6524C216.185 24.6715 216.161 24.697 216.127 24.7282L217.47 26.2102C217.834 25.8801 218.165 25.4207 218.204 24.8277C218.244 24.2263 217.97 23.7278 217.636 23.3589L216.152 24.6995ZM216.147 24.7107L207.291 32.3187L208.594 33.8358L217.45 26.2278L216.147 24.7107ZM207.192 33.7385L217.2 45.0905L218.7 43.7679L208.692 32.4159L207.192 33.7385ZM217.208 45.0995C217.236 45.1298 217.253 45.1532 217.264 45.1692C217.274 45.1851 217.277 45.1922 217.276 45.1903C217.276 45.1882 217.271 45.1776 217.268 45.1594C217.265 45.1408 217.263 45.1186 217.265 45.0947C217.266 45.0709 217.271 45.0509 217.275 45.0363C217.28 45.0221 217.284 45.0162 217.282 45.0189C217.28 45.0219 217.273 45.0332 217.257 45.0524C217.241 45.0715 217.217 45.097 217.183 45.1282L218.526 46.6102C218.89 46.2801 219.221 45.8207 219.26 45.2277C219.3 44.6263 219.026 44.1278 218.692 43.7589L217.208 45.0995ZM217.185 45.1259C217.157 45.1513 217.136 45.1671 217.122 45.1763C217.108 45.1855 217.103 45.1871 217.107 45.1855C217.111 45.1837 217.124 45.1788 217.144 45.1752C217.165 45.1715 217.189 45.1698 217.215 45.1716C217.241 45.1734 217.263 45.1782 217.279 45.1835C217.296 45.1887 217.303 45.1933 217.302 45.1928C217.301 45.1922 217.292 45.1865 217.275 45.172C217.257 45.1575 217.234 45.1353 217.204 45.1029L215.72 46.4435C216.042 46.7997 216.493 47.1265 217.078 47.1669C217.671 47.2078 218.162 46.9377 218.523 46.6125L217.185 45.1259ZM217.211 45.11L207.131 33.734L205.634 35.0604L215.714 46.4364L217.211 45.11ZM205.729 33.6399L202.417 36.4959L203.723 38.0105L207.035 35.1545L205.729 33.6399ZM202.07 37.2532V45.1492H204.07V37.2532H202.07ZM202.07 45.1492C202.07 45.1919 202.068 45.223 202.065 45.2441C202.062 45.265 202.059 45.2741 202.059 45.274C202.059 45.2736 202.062 45.2641 202.071 45.249C202.076 45.2415 202.081 45.2332 202.088 45.2243C202.095 45.2155 202.103 45.2067 202.111 45.1981C202.12 45.1896 202.129 45.1818 202.137 45.1749C202.146 45.1681 202.155 45.1625 202.162 45.158C202.177 45.1489 202.187 45.1457 202.187 45.1455C202.187 45.1455 202.178 45.1485 202.157 45.1515C202.136 45.1545 202.105 45.1572 202.062 45.1572V47.1572C202.553 47.1572 203.104 47.034 203.525 46.6123C203.947 46.1907 204.07 45.6394 204.07 45.1492H202.07Z" fill="black" mask="url(#path-3-outside-2_105_164)"/>
</svg>
